<?xml version="1.0" encoding="utf-8"?>
<!-- Generator: Adobe Illustrator 27.0.0, SVG Export Plug-In . SVG Version: 6.00 Build 0)  -->
<svg version="1.1" id="Layer_1" xmlns="http://www.w3.org/2000/svg" xmlns:xlink="http://www.w3.org/1999/xlink" x="0px" y="0px"
	 viewBox="0 0 1731 500" style="enable-background:new 0 0 1731 500;" xml:space="preserve">
<style type="text/css">
	.st0{fill:#FEBC12;stroke:#FEBC12;stroke-width:10;stroke-miterlimit:10;}
</style>
<g>
	<path class="st0" d="M55.3,373.7c-9.5,0-17.5-3-24-8.9s-9.7-13.4-9.7-22.6V161.7c0-8.6,3.1-16,9.4-22.2c6.2-6.2,14.4-9.3,24.4-9.3
		c9,0,16.4,2.8,22.1,8.5c5.7,5.6,9.1,12.5,10.1,20.6c5.5-9.1,13-16.9,22.5-23.4c9.5-6.4,19.5-9.7,30-9.7c6.5,0,12.7,0.8,18.7,2.4
		c7,2.2,12.7,6.3,17.2,12.5s6.7,13.3,6.7,21.4c0,11.3-3.4,20.6-10.1,27.8c-6.7,7.3-14.6,9.8-23.6,7.7c-6.5-1.6-13-2.4-19.5-2.4
		c-11.5,0-21,4.3-28.5,12.9c-7.5,8.6-12,26.1-13.5,52.4v80.6c0,9.1-3.1,16.8-9.4,23C71.9,370.6,64.3,373.7,55.3,373.7z"/>
	<path class="st0" d="M364.2,160.9c0-10.2,3.1-18.5,9.4-25c6.2-6.4,14.1-9.7,23.6-9.7s17.4,3.4,23.6,10.1c6.2,6.7,9.4,14.9,9.4,24.6
		v113.7c0,22-5.2,40.7-15.7,56s-24,26.7-40.5,34.3c-16.5,7.5-34,11.3-52.5,11.3c-18,0-35.2-3.8-51.7-11.3s-30.1-18.9-40.9-34.3
		c-10.8-15.3-16.1-34-16.1-56V160.9c0-10.2,3.1-18.5,9.4-25c6.2-6.4,14.1-9.7,23.6-9.7s17.4,3.4,23.6,10.1
		c6.2,6.7,9.4,14.9,9.4,24.6v110.4c0,11.3,4,20.7,12,28.2s18.2,11.3,30.7,11.3s22.7-3.8,30.7-11.3s12-16.9,12-28.2V160.9z"/>
	<path class="st0" d="M520.9,376.2c-9.5,0-17.5-3-24-8.9s-9.7-13.4-9.7-22.6V44.8c0-8.6,3.1-16,9.4-22.2c6.2-6.2,14.4-9.3,24.4-9.3
		c9.5,0,17.2,3.1,23.2,9.3s9,13.8,9,23v298.3c0,9.1-3.1,16.8-9.4,23C537.6,373.1,529.9,376.2,520.9,376.2z"/>
	<path class="st0" d="M719.7,376.2c-34,0-62.6-10.9-85.9-32.6c-23.2-21.8-34.9-51.7-34.9-89.9c0-39.8,11.4-70.9,34.1-93.5
		c22.7-22.6,51.4-33.9,85.9-33.9c24.5,0,44.7,4.8,60.7,14.5c16,9.7,28,22,36,37.1s12,30.9,12,47.6c0,28-11.5,41.9-34.5,41.9H668.7
		c-4,0-6,2.7-6,8.1c0,12.4,6.4,22.2,19.1,29.4c12.7,7.3,27.1,10.9,43.1,10.9c10,0,20-1.5,30-4.4s18.7-7.4,26.2-13.3
		c5-3.8,10.2-5.6,15.7-5.6c7.5,0,13.9,3,19.1,8.9c5.2,5.9,7.9,12.9,7.9,21c0,9.7-4.8,18.8-14.2,27.4c-9,8.1-22.1,14.5-39.4,19.3
		C753,373.7,736.2,376.2,719.7,376.2z M758.6,220.6c1,0,2.4-0.3,4.1-0.8c1.7-0.5,2.6-2.4,2.6-5.6c0-8.1-4.6-15.4-13.9-22.2
		c-9.3-6.7-21.1-10.1-35.6-10.1c-15.5,0-28.1,3.6-37.9,10.9s-14.6,14.6-14.6,22.2c0,3.8,2,5.6,6,5.6L758.6,220.6L758.6,220.6z"/>
	<path class="st0" d="M937.9,376.2c-9.5,0-18.1-3-25.9-8.9s-12.9-14.8-15.4-26.6l-45-169.3c-0.5-2.1-0.9-4-1.1-5.6
		c-0.3-1.6-0.4-3.2-0.4-4.8c0-9.7,3.2-17.9,9.7-24.6c6.5-6.7,14.5-10.1,24-10.1c16.5,0,26.5,8.1,30,24.2L937,269
		c1.5,5.9,3.7,8.9,6.7,8.9c3.5,0,6-2.7,7.5-8.1l32.2-102.4c3-9.1,7.7-15.8,14.2-20.2c6.5-4.3,13.2-6.4,20.2-6.4s13.9,2.2,20.6,6.4
		c6.7,4.3,11.1,11,13.1,20.2l31.5,102.4c1.5,5.4,3.7,8.1,6.7,8.1s5.2-2.9,6.7-8.9l23.2-118.5c3.5-16.1,13.5-24.2,30-24.2
		c9.5,0,17.5,3.4,24,10.1c6.5,6.7,9.7,14.9,9.7,24.6c0,1.6-0.1,3.2-0.4,4.8s-0.6,3.5-1.1,5.6l-45,169.3c-3,11.8-8.4,20.7-16.1,26.6
		c-7.8,5.9-16.4,8.9-25.9,8.9c-8.5,0-16.5-2.8-24-8.5c-7.5-5.6-13.3-14.4-17.2-26.2l-30-95.1c-1.5-5.9-3.7-8.9-6.7-8.9
		c-3.5,0-6,3-7.5,8.9l-30,95.1c-3.5,11.8-9.1,20.6-16.9,26.2C955.2,373.3,946.8,376.2,937.9,376.2z"/>
	<path class="st0" d="M1318.8,376.2c-33.5,0-60.6-11.4-81.4-34.3c-20.8-22.8-31.1-53.3-31.1-91.5s10.1-68.4,30.4-90.7
		c20.2-22.3,46.9-33.5,79.9-33.5c23.5,0,44,8.9,61.5,26.6c2-6.4,5.7-11.8,11.2-16.1s12-6.4,19.5-6.4c10,0,18.1,3.1,24.4,9.3
		c6.2,6.2,9.4,13.6,9.4,22.2v183c0,9.1-3.1,16.7-9.4,22.6s-14.4,8.9-24.4,8.9c-16.5,0-26.7-7.8-30.7-23.4
		C1362,368.4,1342.3,376.2,1318.8,376.2z M1324,310.9c16,0,28.7-5.8,38.2-17.3c9.5-11.6,14.2-25.9,14.2-43.1
		c0-17.7-4.8-32-14.2-42.7c-9.5-10.7-22.2-16.1-38.2-16.1c-15.5,0-28.1,5.4-37.9,16.1c-9.7,10.8-14.6,25-14.6,42.7
		c0,17.2,4.9,31.6,14.6,43.1C1295.9,305.1,1308.5,310.9,1324,310.9z"/>
	<path class="st0" d="M1476.2,158.5c0-10.7,3.5-18.8,10.5-24.2s15-8.1,24-8.1c7,0,13.1,2,18.4,6s8.9,9.5,10.9,16.5l46.5,121.7
		c2.5,7,6,10.5,10.5,10.5s7.7-3.5,9.7-10.5l40.5-121.7c2.5-7.5,6.6-13.2,12.4-16.9c5.7-3.8,11.9-5.6,18.4-5.6c8.5,0,16.4,3,23.6,8.9
		s10.9,13.7,10.9,23.4c0,5.4-1,10.5-3,15.3l-117,290.2c-3.5,8.1-7.9,13.8-13.1,17.3s-10.6,5.2-16.1,5.2c-9,0-17.1-3.4-24.4-10.1
		s-10.9-14.7-10.9-23.8c0-4.8,1-9.1,3-12.9l40.5-77.4c-8.5-2.7-15.3-9.4-20.2-20.2L1478.5,173C1477,168.2,1476.2,163.3,1476.2,158.5
		z"/>
</g>
</svg>
